<?xml version="1.0" encoding="UTF-8" standalone="no"?>
<!DOCTYPE svg PUBLIC "-//W3C//DTD SVG 1.1//EN" "http://www.w3.org/Graphics/SVG/1.1/DTD/svg11.dtd">
<svg version="1.1" xmlns="http://www.w3.org/2000/svg" xmlns:xlink="http://www.w3.org/1999/xlink" preserveAspectRatio="xMidYMid meet" viewBox="0 0 1200 800" width="384" height="256"><defs><path d="M532.8 53.96L535.71 54.26L538.58 54.67L541.42 55.19L544.22 55.82L546.97 56.56L549.68 57.4L552.34 58.34L554.96 59.39L557.52 60.53L560.03 61.77L562.48 63.1L564.87 64.53L567.21 66.04L569.48 67.64L571.68 69.32L573.82 71.08L575.88 72.92L577.88 74.84L579.8 76.84L581.64 78.9L583.4 81.04L585.08 83.25L586.68 85.52L588.19 87.85L589.62 90.24L590.95 92.69L592.19 95.2L593.33 97.76L594.38 100.38L595.32 103.04L596.16 105.75L596.9 108.5L597.53 111.3L598.05 114.14L598.46 117.01L598.76 119.92L598.94 122.86L599 125.83L598.94 128.81L598.76 131.75L598.46 134.66L598.05 137.53L597.53 140.37L596.9 143.16L596.16 145.92L595.32 148.63L594.38 151.29L593.33 153.9L592.19 156.46L590.95 158.97L590.33 160.12L590.34 160.12L590.05 160.64L589.62 161.42L588.71 162.96L526.89 270.08L464.81 162.52L464.16 161.42L463.85 160.86L463.68 160.57L463.69 160.57L462.83 158.97L461.59 156.46L460.44 153.9L459.4 151.29L458.45 148.63L457.61 145.92L456.87 143.16L456.24 140.37L455.72 137.53L455.31 134.66L455.02 131.75L454.84 128.81L454.78 125.83L454.84 122.86L455.02 119.92L455.31 117.01L455.72 114.14L456.24 111.3L456.87 108.5L457.61 105.75L458.45 103.04L459.4 100.38L460.44 97.76L461.59 95.2L462.83 92.69L464.16 90.24L465.58 87.85L467.09 85.52L468.69 83.25L470.37 81.04L472.14 78.9L473.98 76.84L475.9 74.84L477.89 72.92L479.96 71.08L482.1 69.32L484.3 67.64L486.57 66.04L488.9 64.53L491.3 63.1L493.75 61.77L496.26 60.53L498.82 59.39L501.43 58.34L504.1 57.4L506.81 56.56L509.56 55.82L512.36 55.19L515.19 54.67L518.06 54.26L520.97 53.96L523.92 53.78L526.89 53.72L529.86 53.78L532.8 53.96Z" id="bbvigL3Ch"></path><path d="M526.89 179.92C555.91 179.92 579.44 156.39 579.44 127.37C579.44 98.35 555.91 74.82 526.89 74.82C497.87 74.82 474.34 98.35 474.34 127.37C474.34 156.39 497.87 179.92 526.89 179.92C526.89 179.92 526.89 179.92 526.89 179.92C526.89 179.92 526.89 179.92 526.89 179.92Z" id="g9s9vDKE7"></path><path d="M554.53 113.44L528.48 141.3L528.48 141.3L518.23 152.26L499.24 131.96L509.49 121L518.23 130.34L544.28 102.48L554.53 113.44L554.53 113.44L554.53 113.44Z" id="c4nVN5gwIe"></path><path d="M533.24 277.92L533.51 278.07L533.76 278.27L533.97 278.52L534.12 278.8L534.2 279.1L534.23 279.41L534.2 279.71L534.12 280.01L533.97 280.29L533.76 280.54L529.52 284.78L533.76 289.02L533.97 289.27L534.12 289.55L534.2 289.85L534.23 290.15L534.2 290.46L534.12 290.76L533.97 291.03L533.76 291.28L533.51 291.49L533.24 291.64L532.94 291.72L532.63 291.75L532.33 291.72L532.03 291.64L531.75 291.49L531.5 291.28L527.26 287.04L523.02 291.28L522.77 291.49L522.49 291.64L522.19 291.72L521.89 291.75L521.58 291.72L521.28 291.64L521 291.49L520.75 291.28L520.55 291.03L520.4 290.76L520.31 290.46L520.29 290.15L520.31 289.85L520.4 289.55L520.55 289.27L520.75 289.02L525 284.78L520.75 280.54L520.55 280.29L520.4 280.01L520.31 279.71L520.29 279.41L520.31 279.1L520.4 278.8L520.55 278.52L520.75 278.27L521 278.07L521.28 277.92L521.58 277.83L521.89 277.81L522.19 277.83L522.49 277.92L522.77 278.07L523.02 278.27L527.26 282.52L531.5 278.27L531.75 278.07L532.03 277.92L532.33 277.83L532.63 277.81L532.94 277.83L533.24 277.92Z" id="c2mLAP3C0d"></path><mask id="maska15hln3P1x" x="518.29" y="275.81" width="17.95" height="17.95" maskUnits="userSpaceOnUse"><rect x="518.29" y="275.81" width="17.95" height="17.95" fill="white"></rect><use xlink:href="#c2mLAP3C0d" opacity="1" fill="black"></use></mask></defs><g><g><g><use xlink:href="#bbvigL3Ch" opacity="1" fill="#889afe" fill-opacity="1"></use><g><use xlink:href="#bbvigL3Ch" opacity="1" fill-opacity="0" stroke="#415968" stroke-width="3" stroke-opacity="1"></use></g></g><g><use xlink:href="#g9s9vDKE7" opacity="1" fill="#ffffff" fill-opacity="1"></use><g><use xlink:href="#g9s9vDKE7" opacity="1" fill-opacity="0" stroke="#415968" stroke-width="3" stroke-opacity="1"></use></g></g><g><use xlink:href="#c4nVN5gwIe" opacity="1" fill="#8899fe" fill-opacity="1"></use><g><use xlink:href="#c4nVN5gwIe" opacity="1" fill-opacity="0" stroke="#415968" stroke-width="3" stroke-opacity="1"></use></g></g><g><use xlink:href="#c2mLAP3C0d" opacity="1" fill="#8899fe" fill-opacity="1"></use><g mask="url(#maska15hln3P1x)"><use xlink:href="#c2mLAP3C0d" opacity="1" fill-opacity="0" stroke="#415968" stroke-width="2" stroke-opacity="1"></use></g></g></g></g></svg>